# xmcd
# 
# Track frame offsets:
#     150
#     11771
#     24988
#     38496
#     56338
#     70641
#     88106
#     104415
#     115573
#     130683
#     141625
#     153418
# 
# Disc length: 2322
# 
# Revision: 1
# Processed by: cddbd v1.5.2PL0 Copyright (c) Steve Scherf et al.
# Submitted via: BonkEnc v1.0.15
# 
DISCID=9309100c
DTITLE=Various Artist - Genuine Negro Jig
DYEAR=2010
DGENRE=Blues
TTITLE0=CAROLINA CHOCOLATE DROPS - Peace Behind The Bridge
TTITLE1=CAROLINA CHOCOLATE DROPS - TROUBLE IN YOUR MIND
TTITLE2=CAROLINA CHOCOLATE DROPS - YOUR BABY AIN'T SWEET LIKE MINE 
TTITLE3=CAROLINA CHOCOLATE DROPS - HIT 'EM UP STYLE
TTITLE4=CAROLINA CHOCOLATE DROPS - CORNBREAD AND BUTTERBEANS
TTITLE5=CAROLINA CHOCOLATE DROPS - SNOWDEN'S JIG (GENUINE NEGRO JIG) 
TTITLE6=CAROLINA CHOCOLATE DROPS - WHY DON'T YOU DO RIGHT?
TTITLE7=CAROLINA CHOCOLATE DROPS - CINDY GAL 
TTITLE8=CAROLINA CHOCOLATE DROPS - KISSIN' AND CUSSIN'
TTITLE9=CAROLINA CHOCOLATE DROPS - SANDY BOYS
TTITLE10=CAROLINA CHOCOLATE DROPS - REYNADINE
TTITLE11=CAROLINA CHOCOLATE DROPS - TRAMPLED ROSE 
EXTD=
EXTT0=
EXTT1=
EXTT2=
EXTT3=
EXTT4=
EXTT5=
EXTT6=
EXTT7=
EXTT8=
EXTT9=
EXTT10=
EXTT11=
PLAYORDER=
